<svg id="ACS" xmlns="http://www.w3.org/2000/svg" viewBox="0 0 101.67 93.33"><defs><style>.cls-1{fill:#502875;}.cls-2{fill:#0038a8;}.cls-3{fill:#c41e3a;}.cls-4{fill:#fff;}</style></defs><title>Artboard 1</title><path class="cls-1" d="M96.7,55.14a.8.8,0,1,1,.79.87A.81.81,0,0,1,96.7,55.14Zm-.32,0A1.12,1.12,0,1,0,97.49,54,1.12,1.12,0,0,0,96.38,55.14Zm.67.61h.27v-.52h.13l.3.52H98l-.33-.54c.19,0,.33-.11.33-.33s-.18-.37-.49-.37H97Zm.27-.73v-.31h.19c.11,0,.24,0,.24.14s-.08.17-.21.17Z"/><path class="cls-1" d="M48.36,33.41H49c.88,0,1.68.15,1.68.95,0,1-.94,1-1.68,1h-.6Zm-2.29,7h2.29V37h.48c.85,0,1.15.37,1.62,1.85L51,40.39h2.39L52.51,38c-.43-1-.48-1.7-1.22-1.9v0A2,2,0,0,0,52.94,34c0-1.48-1.25-2.17-2.78-2.17H46.07Z"/><path class="cls-1" d="M54.3,31.78h6.07v1.63H56.59v1.78h3.56v1.63H56.59v1.95H60.5v1.63H54.3Z"/><path class="cls-1" d="M61.89,31.78h2.29v6.91h3.55v1.7H61.89Z"/><path class="cls-1" d="M74.06,36.92H71.9L73,33.56h0Zm-5.7,3.47h2.33l.68-1.84H74.6l.64,1.84h2.52l-3.32-8.61H71.63Z"/><path class="cls-1" d="M79.41,37.15l-3.18-5.37h2.64l1.69,3.45,1.67-3.45h2.64l-3.16,5.37v3.24h-2.3Z"/><path class="cls-1" d="M46.07,43.47h5.76V45.1H48.36V47h3.32v1.63H48.36v3.46H46.07Z"/><path class="cls-1" d="M55,47.78C55,46.29,55.59,45,57,45s1.95,1.26,1.95,2.75-.55,2.75-1.95,2.75S55,49.2,55,47.78Zm-2.37,0c0,2.74,1.51,4.45,4.32,4.45s4.32-1.72,4.32-4.45S59.82,43.33,57,43.33,52.67,45,52.67,47.78Z"/><path class="cls-1" d="M64.82,45.1h.6c.88,0,1.68.15,1.68.95,0,1-.94,1-1.68,1h-.6Zm-2.29,7h2.29v-3.4h.48c.85,0,1.15.37,1.62,1.85l.49,1.55H69.8L69,49.74c-.43-1-.48-1.7-1.22-1.9v0a2,2,0,0,0,1.65-2.17c0-1.48-1.25-2.17-2.78-2.17H62.52Z"/><path class="cls-1" d="M74.59,43.47h2.29v6.91h3.55v1.7H74.59Z"/><path class="cls-1" d="M81.56,43.47h2.29v8.61H81.56Z"/><path class="cls-1" d="M85.5,43.47h5.76V45.1H87.8V47h3.32v1.63H87.8v3.46H85.5Z"/><path class="cls-1" d="M92.36,43.47h6.07V45.1H94.65v1.78h3.57v1.63H94.65v2h3.91v1.63h-6.2Z"/><path class="cls-1" d="M23.64,70.36A38.65,38.65,0,0,0,42,76.24S18,68,18,41.23c0-23,24-33.69,24-33.69a30.3,30.3,0,0,0-13.66,3C18.88,14.82,8,24.4,8,41.87A32.63,32.63,0,0,0,23.64,70.36Z"/><path class="cls-1" d="M7.19,2.32c0,1.55,0,5.16-.07,5.42C6,8.12,2.41,9.29,1.83,9.54c1.68.71,3.49,1.29,5.23,2l.13,5.67,3.42-4.38s4.84,1.55,5.35,1.61c-.07-.13-3-4.26-3.22-4.71,0-.39,2.84-4.06,3.22-4.65-1.1.2-4.64,1.49-5.48,1.55C10.28,6.31,8.09,3.35,7.19,2.32Z"/><polygon class="cls-1" points="47.42 7.14 55.17 8.67 52.52 1.79 47.42 7.14"/><polygon class="cls-1" points="60.31 10.79 66.88 15.17 67.08 7.8 60.31 10.79"/><polygon class="cls-1" points="70.75 19.04 75.15 25.6 78.15 18.86 70.75 19.04"/><g id="Logo"><polygon class="cls-2" points="56.96 58.91 98.03 58.91 87.78 89.81 56.96 89.81 56.96 58.91"/><rect class="cls-3" x="46.64" y="58.91" width="10.33" height="30.9"/><path class="cls-4" d="M64.77,67.75h1v.61h0A1.26,1.26,0,0,1,67,67.68a1,1,0,0,1,1,.64,1.32,1.32,0,0,1,1.18-.64c1,0,1.17.54,1.17,1.44v2H69.29V69.29c0-.38-.13-.66-.46-.66s-.65.33-.65,1v1.4H67V69.29c0-.38-.14-.66-.46-.66s-.65.33-.65,1v1.4H64.77Z"/><path class="cls-4" d="M72,69.75c.06.46.41.64,1,.64a2.15,2.15,0,0,0,1-.26v.81a3.29,3.29,0,0,1-1.22.21,1.75,1.75,0,0,1-1.93-1.74,1.65,1.65,0,0,1,1.78-1.73c1.23,0,1.68.87,1.68,1.86v.21Zm1.26-.65a.61.61,0,0,0-.64-.7c-.42,0-.61.31-.64.7Z"/><path class="cls-4" d="M77.16,68.67a1.28,1.28,0,0,0-.39,0c-.53,0-.84.39-.84,1v1.4H74.79V67.75h1v.61h0a1,1,0,0,1,1-.69,3,3,0,0,1,.39,0Z"/><path class="cls-4" d="M77.59,67.75h1.15v3.32H77.59Zm1.15-.54H77.59v-.84h1.15Z"/><path class="cls-4" d="M81.81,68.7a1.27,1.27,0,0,0-.7-.18.85.85,0,0,0-.88.92.9.9,0,0,0,.95.88,1.56,1.56,0,0,0,.71-.16l0,.85a3,3,0,0,1-.94.15,1.75,1.75,0,1,1,0-3.48,2,2,0,0,1,.91.19Z"/><path class="cls-4" d="M83.29,70c0-.32.31-.44.7-.44l.48,0a.75.75,0,0,1-.71.78c-.27,0-.47-.13-.47-.36m2.32,1.05a4.07,4.07,0,0,1-.06-.79V69.05c0-1-.73-1.38-1.58-1.38a3.44,3.44,0,0,0-1.33.23l0,.78a2.14,2.14,0,0,1,1.06-.25c.42,0,.75.12.76.58a3.41,3.41,0,0,0-.54,0c-.61,0-1.72.12-1.72,1.14,0,.72.59,1,1.24,1a1.14,1.14,0,0,0,1.05-.6h0c0,.17,0,.34,0,.52Z"/><path class="cls-4" d="M86.16,67.75h1v.61h0a1.26,1.26,0,0,1,1.21-.69A1.2,1.2,0,0,1,89.7,69v2.07H88.55V69.47c0-.63-.22-.84-.53-.84-.47,0-.71.33-.71,1v1.4H86.16Z"/><path class="cls-4" d="M63.52,76.44a4.92,4.92,0,0,1-1.32.18,2.3,2.3,0,0,1-2.56-2.28A2.26,2.26,0,0,1,62.19,72a4.66,4.66,0,0,1,1.32.23l-.1,1a2.33,2.33,0,0,0-1.16-.31,1.42,1.42,0,1,0,.09,2.85,3.14,3.14,0,0,0,1.11-.23Z"/><path class="cls-4" d="M64.89,75.49c0-.32.31-.44.69-.44l.48,0a.75.75,0,0,1-.71.78c-.27,0-.47-.14-.47-.37m2.31,1.05a3.92,3.92,0,0,1-.06-.78V74.52c0-1-.73-1.38-1.58-1.38a3.46,3.46,0,0,0-1.33.24l0,.78a2.14,2.14,0,0,1,1.06-.25c.41,0,.75.12.76.57a3.52,3.52,0,0,0-.54,0c-.61,0-1.72.12-1.72,1.14,0,.72.59,1,1.24,1a1.15,1.15,0,0,0,1.05-.6h0c0,.17,0,.34,0,.52Z"/><path class="cls-4" d="M67.73,73.22h1v.61h0A1.26,1.26,0,0,1,70,73.14a1.2,1.2,0,0,1,1.27,1.33v2.07H70.12V74.94c0-.63-.22-.84-.53-.84-.47,0-.71.33-.71,1v1.4H67.73Z"/><path class="cls-4" d="M74.47,74.17a1.24,1.24,0,0,0-.7-.19.86.86,0,0,0-.88.92.9.9,0,0,0,.95.88,1.58,1.58,0,0,0,.71-.16l0,.86a3.12,3.12,0,0,1-.94.15,1.75,1.75,0,1,1,0-3.48,2.07,2.07,0,0,1,.91.19Z"/><path class="cls-4" d="M76.07,74.57c0-.38.22-.7.64-.7a.61.61,0,0,1,.64.7Zm2.31.65V75c0-1-.45-1.86-1.68-1.86a1.65,1.65,0,0,0-1.78,1.73,1.75,1.75,0,0,0,1.93,1.74,3.35,3.35,0,0,0,1.22-.21V75.6a2.16,2.16,0,0,1-1,.25c-.56,0-.91-.18-1-.64Z"/><path class="cls-4" d="M81.22,74.14a1.32,1.32,0,0,0-.39,0c-.54,0-.84.39-.84,1v1.4H78.85V73.22h1v.61h0a1,1,0,0,1,1-.69,2.43,2.43,0,0,1,.39,0Z"/><path class="cls-4" d="M59.82,80.91a2.6,2.6,0,0,0,1.23.29c.37,0,.73-.07.73-.43,0-.83-2.11-.31-2.11-1.93,0-1.07,1-1.36,1.94-1.36a3.77,3.77,0,0,1,1.15.17l-.08.92a2.39,2.39,0,0,0-1-.2c-.3,0-.8,0-.8.41,0,.72,2.11.24,2.11,1.84,0,1.15-1,1.47-2,1.47a4.68,4.68,0,0,1-1.33-.19Z"/><path class="cls-4" d="M65.17,81.28c-.53,0-.75-.44-.75-.93s.22-.94.75-.94.75.44.75.94-.22.93-.75.93m0,.8a1.75,1.75,0,1,0-1.93-1.74,1.74,1.74,0,0,0,1.93,1.74"/><path class="cls-4" d="M70.13,79.64a1.26,1.26,0,0,0-.7-.19.86.86,0,0,0-.88.92.9.9,0,0,0,.94.87,1.57,1.57,0,0,0,.72-.16l0,.85a3,3,0,0,1-.94.15,1.75,1.75,0,1,1,0-3.47,2,2,0,0,1,.91.19Z"/><path class="cls-4" d="M70.76,78.69h1.15V82H70.76Zm1.15-.54H70.76V77.3h1.15Z"/><path class="cls-4" d="M73.56,80c0-.38.23-.69.64-.69a.61.61,0,0,1,.64.69Zm2.31.65v-.21c0-1-.45-1.86-1.68-1.86a1.65,1.65,0,0,0-1.78,1.73,1.75,1.75,0,0,0,1.93,1.74,3.33,3.33,0,0,0,1.22-.21v-.81a2.16,2.16,0,0,1-1,.25c-.56,0-.91-.18-1-.64Z"/><path class="cls-4" d="M76,78.69h.68v-.75l1.13-.35v1.1h.8v.8h-.8v1.23c0,.4.1.6.46.6a2.23,2.23,0,0,0,.35,0l0,.74a5.14,5.14,0,0,1-.72.06c-1,0-1.28-.45-1.28-1.24V79.49H76Z"/><path class="cls-4" d="M79.2,82.48a1.44,1.44,0,0,0,.45.07.58.58,0,0,0,.58-.46l-1.35-3.4h1.24l.71,2.17h0l.68-2.17h1.15l-1.22,3.09c-.33.84-.58,1.64-1.63,1.64a3.23,3.23,0,0,1-.71-.08Z"/><path class="cls-4" d="M53,79.53a.67.67,0,0,1,.85,0,.6.6,0,0,1-.07.84c-.27.24-2.31,1.88-2.71,2.17a.67.67,0,0,1-.77-.1.66.66,0,0,1,0-.79c.23-.2,2.45-2,2.66-2.14"/><path class="cls-4" d="M52.66,81.77a.66.66,0,0,1,.82,0,.6.6,0,0,1-.06.84c-.31.28-1.78,1.39-2,1.54a.69.69,0,0,1-.77-.09.57.57,0,0,1,0-.8c.26-.23,1.72-1.35,2-1.51"/><path class="cls-4" d="M52.52,83.78v.85a.81.81,0,0,1,.08,1.23.84.84,0,0,1-1.28-.35v-.86c.21-.11,1.19-.87,1.19-.87"/><polygon class="cls-4" points="51.92 61.95 52.53 63.43 52.53 77.65 51.93 78.12 51.33 77.64 51.33 63.43 51.92 61.95"/><path class="cls-4" d="M54.25,75.24H53l.41.65-.46.66c.54.27,1.09-.26,1.24-.11s.15.23.06.3L50,80.06a.58.58,0,0,0,.81.81l4.32-3.39a1.35,1.35,0,0,0,.22-1.4,1.21,1.21,0,0,0-1.09-.84"/><path class="cls-4" d="M49.56,75.25h1.33l-.41.64.47.66c-.55.27-1.15-.25-1.3-.09s-.13.22,0,.28l2,1.6-.93.72-2-1.58a1.33,1.33,0,0,1-.22-1.4,1.2,1.2,0,0,1,1.08-.83"/><path class="cls-4" d="M62.51,69.28H61.39L62,67.54h0Zm-2.95,1.79h1.21l.35-.95h1.67l.33.95h1.3l-1.72-4.45H61.25Z"/></g></svg>